<?xml version="1.0" encoding="UTF-8"?>
<!DOCTYPE svg PUBLIC "-//W3C//DTD SVG 1.1//EN" "http://www.w3.org/Graphics/SVG/1.1/DTD/svg11.dtd">
<svg
        xmlns="http://www.w3.org/2000/svg"
        version="1.1"
        width="100%"
        height="100%"
        viewBox="0 0 64 64"
>
    <g>
        <path
                opacity="0.984"
                fill="#17316a"
                d="M 39.5,5.5 C 44.3902,4.2234 49.3902,4.39006 54.5,6C 56.0488,7.21398 57.2155,8.71398 58,10.5C 59.318,21.2862 58.1513,31.7862 54.5,42C 54.0946,42.9454 53.428,43.6121 52.5,44C 47.7093,44.5522 43.3759,43.3856 39.5,40.5C 43.2856,30.4991 44.4523,20.1657 43,9.5C 42.5017,7.45559 41.335,6.12225 39.5,5.5 Z"
        />
    </g>
    <g>
        <path
                opacity="0.992"
                fill="#16316a"
                d="M 32.5,5.5 C 35.6421,5.79925 37.8088,7.46592 39,10.5C 39.6667,13.5 39.6667,16.5 39,19.5C 27.903,21.3045 18.2364,25.9711 10,33.5C 9.34386,37.0016 8.01053,37.0016 6,33.5C 0.191138,25.2384 1.69114,18.7384 10.5,14C 17.6019,10.2494 24.9352,7.41607 32.5,5.5 Z"
        />
    </g>
    <g>
        <path
                opacity="0.991"
                fill="#17316a"
                d="M 51.5,48.5 C 49.9626,53.06 47.2959,56.8933 43.5,60C 41.5,60.6667 39.5,60.6667 37.5,60C 27.4744,55.6576 18.8078,49.3243 11.5,41C 12.4897,35.174 15.8231,31.3407 21.5,29.5C 28.1058,36.9343 35.7725,43.101 44.5,48C 46.8098,48.4966 49.1432,48.6633 51.5,48.5 Z"
        />
    </g>
</svg>
